<svg xmlns="http://www.w3.org/2000/svg" viewBox="0 0 32 32" fill="currentColor">
  <rect width="32" height="32" rx="8" fill="#fff"/>
  <g>
    <path d="M24.5 11.5C24.02 11.7 23.48 11.82 22.91 11.87C23.49 11.53 23.95 10.97 24.15 10.29C23.61 10.6 23.01 10.8 22.36 10.91C21.86 10.36 21.13 10 20.31 10C18.63 10 17.41 11.56 17.78 13.17C15.37 13.05 13.23 11.95 11.81 10.21C11.19 11.2 11.51 12.44 12.49 13.06C12.06 13.05 11.66 12.93 11.32 12.75C11.31 13.8 12.07 14.73 13.14 14.93C12.82 15.01 12.46 15.02 12.12 14.95C12.4 15.83 13.3 16.45 14.33 16.46C13.51 17.06 12.47 17.34 11.43 17.22C12.48 17.81 13.77 18.16 15.15 18.16C20.36 18.16 23.22 14.56 23.04 11.61C23.6 11.19 24.09 10.66 24.5 11.5Z" fill="#4b2e83"/>
  </g>
</svg>